<?xml version="1.0" standalone="no"?>
<!DOCTYPE svg PUBLIC "-//W3C//DTD SVG 20010904//EN"
 "http://www.w3.org/TR/2001/REC-SVG-20010904/DTD/svg10.dtd">
<svg version="1.0" xmlns="http://www.w3.org/2000/svg"
 width="700.000000pt" height="700.000000pt" viewBox="0 0 700.000000 700.000000"
 preserveAspectRatio="xMidYMid meet">
<metadata>
Created by potrace 1.14, written by Peter Selinger 2001-2017
</metadata>
<g transform="translate(0.000000,700.000000) scale(0.100000,-0.100000)"
fill="#000000" stroke="none">
<path d="M1970 6406 c-99 -26 -178 -101 -204 -196 -13 -46 -16 -113 -16 -362
l0 -305 -467 -1 c-516 0 -546 -3 -666 -63 -138 -68 -241 -186 -299 -342 l-22
-62 -4 -950 c-3 -1112 -7 -1072 94 -1232 58 -92 145 -167 246 -212 118 -53
136 -55 643 -56 l470 0 5 -910 5 -910 28 -57 c125 -255 503 -197 544 84 4 29
8 443 8 920 -1 597 2 868 10 871 9 3 2251 1 2300 -2 21 -1 21 -2 22 -903 l0
-903 25 -55 c50 -108 150 -173 268 -174 112 -1 204 58 262 167 l23 42 5 915 5
915 475 1 c417 1 483 3 539 18 209 56 362 209 422 421 12 42 14 214 14 1020
l0 970 -22 70 c-68 217 -258 381 -473 410 -30 4 -258 7 -507 7 l-452 0 -3 331
c-3 297 -5 336 -21 368 -105 212 -384 234 -510 42 -21 -32 -39 -74 -43 -101
-4 -26 -8 -180 -8 -343 l0 -297 -1166 2 -1165 1 -1 300 c0 165 -4 318 -8 340
-30 157 -199 262 -356 221z m1119 -2322 l874 -874 -464 0 -464 0 -874 874
-874 874 464 0 464 -1 874 -873z m1750 -1 l873 -873 -464 0 -463 0 -874 874
-873 874 464 -2 465 -1 872 -872z m1286 210 c0 -365 -2 -663 -5 -663 -3 0
-304 299 -669 664 l-664 664 669 -2 669 -1 0 -662z m-4578 -418 l665 -665
-669 2 -668 3 0 663 c0 364 1 662 3 662 2 0 303 -299 669 -665z"/>
</g>
</svg>
